<mxGraphModel dx="1426" dy="774" grid="1" gridSize="10" guides="1" tooltips="1" connect="1" arrows="1" fold="1" page="1" pageScale="1" pageWidth="1169" pageHeight="827" background="#ffffff" math="0" shadow="0">
  <root>
    <mxCell id="0"/>
    <mxCell id="1" parent="0"/>
    <mxCell id="2" value="שירות הדואר" style="rounded=0;whiteSpace=wrap;html=1;fillColor=#dae8fc;strokeColor=#6c8ebf;" vertex="1" parent="1">
      <mxGeometry x="40" y="320" width="120" height="60" as="geometry"/>
    </mxCell>
    <mxCell id="3" value="" style="endArrow=classic;html=1;exitX=1;exitY=0.5;entryX=0;entryY=0.5;" edge="1" parent="1" source="2" target="4">
      <mxGeometry width="50" height="50" relative="1" as="geometry">
        <mxPoint x="40" y="470" as="sourcePoint"/>
        <mxPoint x="90" y="420" as="targetPoint"/>
      </mxGeometry>
    </mxCell>
    <mxCell id="4" value="Ingress API<div><span style=&quot;font-size: 10px&quot;>אימות חתימה,</span><br><span style=&quot;font-size: 10px&quot;>תקינות, רעננות,</span><br><span style=&quot;font-size: 10px&quot;>Idempotency</span></div>" style="rounded=0;whiteSpace=wrap;html=1;fillColor=#d5e8d4;strokeColor=#82b366;" vertex="1" parent="1">
      <mxGeometry x="200" y="320" width="140" height="60" as="geometry"/>
    </mxCell>
    <mxCell id="5" value="" style="endArrow=classic;html=1;exitX=1;exitY=0.5;entryX=0;entryY=0.5;" edge="1" parent="1" source="4" target="6">
      <mxGeometry width="50" height="50" relative="1" as="geometry">
        <mxPoint x="180" y="470" as="sourcePoint"/>
        <mxPoint x="230" y="420" as="targetPoint"/>
      </mxGeometry>
    </mxCell>
    <mxCell id="6" value="Queue<div><span style=&quot;font-size: 10px&quot;>(Azure SB / RabbitMQ /</span><br><span style=&quot;font-size: 10px&quot;>SQL Outbox)</span></div>" style="rounded=0;whiteSpace=wrap;html=1;fillColor=#fff2cc;strokeColor=#d6b656;" vertex="1" parent="1">
      <mxGeometry x="380" y="320" width="140" height="60" as="geometry"/>
    </mxCell>
    <mxCell id="7" value="" style="endArrow=classic;html=1;exitX=1;exitY=0.5;entryX=0;entryY=0.5;" edge="1" parent="1" source="6" target="8">
      <mxGeometry width="50" height="50" relative="1" as="geometry">
        <mxPoint x="360" y="470" as="sourcePoint"/>
        <mxPoint x="410" y="420" as="targetPoint"/>
      </mxGeometry>
    </mxCell>
    <mxCell id="8" value="Worker<div><span style=&quot;font-size: 10px&quot;>עיבוד אירוע,</span><br><span style=&quot;font-size: 10px&quot;>מניעת כפילויות,</span><br><span style=&quot;font-size: 10px&quot;>עדכון DB</span></div>" style="rounded=0;whiteSpace=wrap;html=1;fillColor=#e1d5e7;strokeColor=#9673a6;" vertex="1" parent="1">
      <mxGeometry x="560" y="320" width="140" height="60" as="geometry"/>
    </mxCell>
    <mxCell id="9" value="" style="endArrow=classic;html=1;exitX=1;exitY=0.5;entryX=0;entryY=0.5;" edge="1" parent="1" source="8" target="10">
      <mxGeometry width="50" height="50" relative="1" as="geometry">
        <mxPoint x="540" y="470" as="sourcePoint"/>
        <mxPoint x="590" y="420" as="targetPoint"/>
      </mxGeometry>
    </mxCell>
    <mxCell id="10" value="לוח הבקרה<div><span style=&quot;font-size: 10px&quot;>סטטוס בזמן אמת:</span><br><span style=&quot;font-size: 10px&quot;>• הודעות שהתקבלו</span><br><span style=&quot;font-size: 10px&quot;>• הודעות בעיבוד</span><br><span style=&quot;font-size: 10px&quot;>• הודעות ב-DLQ</span></div>" style="rounded=0;whiteSpace=wrap;html=1;fillColor=#f8cecc;strokeColor=#b85450;" vertex="1" parent="1">
      <mxGeometry x="740" y="320" width="140" height="60" as="geometry"/>
    </mxCell>
    <mxCell id="11" value="DLQ<div><span style=&quot;font-size: 10px&quot;>(Dead Letter Queue)</span></div>" style="rounded=0;whiteSpace=wrap;html=1;fillColor=#f8cecc;strokeColor=#b85450;" vertex="1" parent="1">
      <mxGeometry x="380" y="420" width="140" height="60" as="geometry"/>
    </mxCell>
    <mxCell id="12" value="אם שגיאה באימות/תור" style="endArrow=classic;html=1;exitX=0.5;exitY=1;entryX=0.5;entryY=0;" edge="1" parent="1" source="4" target="11">
      <mxGeometry width="50" height="50" relative="1" as="geometry">
        <mxPoint x="270" y="470" as="sourcePoint"/>
        <mxPoint x="320" y="420" as="targetPoint"/>
      </mxGeometry>
    </mxCell>
    <mxCell id="13" value="Webhook Event<div><span style=&quot;font-size: 10px&quot;>(Delivered / Attempt Failed / Sorted)</span></div>" style="text;html=1;strokeColor=none;fillColor=none;align=center;verticalAlign=middle;whiteSpace=wrap;rounded=0;" vertex="1" parent="1">
      <mxGeometry x="160" y="290" width="100" height="20" as="geometry"/>
    </mxCell>
  </root>
</mxGraphModel>
